<svg width="452" height="152" viewBox="0 0 452 152" fill="none" xmlns="http://www.w3.org/2000/svg">
<path d="M295.456 83.2709C295.456 46.4181 265.581 16.5432 228.728 16.5432C224.96 16.5432 221.286 16.9147 217.697 17.5339V69.6419C220.947 66.9587 225.114 65.3466 229.658 65.3466C240.041 65.3466 248.458 73.7638 248.458 84.1467C248.458 87.4911 247.575 90.625 246.045 93.3458L295.381 84.7518C295.392 84.2545 295.456 83.7709 295.456 83.2709Z" fill="#0083F0"/>
<path d="M246.044 93.3474C242.822 99.0739 236.696 102.949 229.657 102.949C219.274 102.949 210.857 94.5315 210.857 84.1483C210.857 84.0936 210.865 84.0408 210.865 83.9864H210.857L210.865 0L162.149 34.7289L162 86.0527H162.14C163.609 121.606 192.814 150 228.728 150C265.08 150 294.585 120.915 295.381 84.7533L246.044 93.3474Z" fill="#0083F0"/>
<path d="M8.20312 124.539V95.6328L65.4297 5.59375H112.5V95.4375H128.906V124.539H112.5V147H76.9531V124.539H8.20312ZM44.9219 95.4375H77.7344V44.2656H76.5625L44.9219 94.4609V95.4375Z" fill="#0083F0"/>
<path d="M324.203 124.539V95.6328L381.43 5.59375H428.5V95.4375H444.906V124.539H428.5V147H392.953V124.539H324.203ZM360.922 95.4375H393.734V44.2656H392.562L360.922 94.4609V95.4375Z" fill="#0083F0"/>
</svg>
