<svg width="102" height="36" viewBox="0 0 102 36" fill="none" xmlns="http://www.w3.org/2000/svg">
<path d="M52.5039 8.20312H58.2734L63.3867 20.6719H63.6055L68.7188 8.20312H74.4883V28H69.9492V15.6953H69.7852L64.9727 27.8906H62.0195L57.207 15.6406H57.043V28H52.5039V8.20312ZM81.3045 8.20312V28H76.6561V8.20312H81.3045ZM100.261 8.20312V28H96.2966L88.2575 16.3789H88.1208V28H83.4723V8.20312H87.4919L95.4489 19.8242H95.613V8.20312H100.261Z" fill="#0083F0"/>
<path d="M5.60547 28H0.574219L7.30078 8.20312H13.4805L20.1797 28H15.1758L13.8359 23.7617H6.94531L5.60547 28ZM8.06641 20.207H12.7148L10.4727 13.0977H10.3086L8.06641 20.207Z" fill="#0083F0"/>
<path d="M36.0963 23.6003H37.3439C38.2887 23.6003 39.1303 23.459 39.8685 23.1766C40.6067 22.8941 41.2268 22.5057 41.7288 22.0113C42.2455 21.5169 42.6367 20.9308 42.8951 20.2599C43.1756 19.5678 43.3085 18.8192 43.3085 18.0071C43.3085 17.1949 43.1682 16.4675 42.8951 15.7754C42.6146 15.0833 42.2233 14.4901 41.6992 13.9958C41.1972 13.5014 40.5772 13.113 39.839 12.8305C39.1008 12.548 38.2666 12.4068 37.3439 12.4068H36.0963V23.6003ZM30.6632 8H38.7095C40.1342 8 41.463 8.27542 42.7032 8.81921C43.9581 9.37006 45.0506 10.1045 45.9734 11.0226C46.9183 11.9266 47.6565 12.9859 48.1954 14.2076C48.7343 15.4082 49 16.6723 49 18C49 19.3277 48.7343 20.5706 48.1954 21.7924C47.6786 22.9929 46.9478 24.0593 46.0029 24.9774C45.0802 25.8955 43.9876 26.6299 42.7327 27.1808C41.4925 27.7316 40.1564 28 38.7095 28H30.6632V8Z" fill="#0083F0"/>
<path d="M23 15.9592C23 15.5417 23.0804 15.1521 23.2485 14.7834C23.4166 14.4007 23.6432 14.0668 23.9355 13.7885C24.2278 13.5102 24.564 13.2945 24.9514 13.1345C25.3534 12.9745 25.7773 12.898 26.2158 12.898C26.6543 12.898 27.0636 12.9745 27.4509 13.1345C27.8529 13.2945 28.2037 13.5102 28.4961 13.7885C28.7884 14.0668 29.015 14.4007 29.1831 14.7834C29.3512 15.1521 29.4316 15.5417 29.4316 15.9592C29.4316 16.3766 29.3512 16.7801 29.1831 17.1628C29.015 17.5315 28.7884 17.8516 28.4961 18.1299C28.2037 18.4082 27.8529 18.6238 27.4509 18.7839C27.0636 18.9439 26.6543 19.0204 26.2158 19.0204C25.7773 19.0204 25.3534 18.9439 24.9514 18.7839C24.564 18.6238 24.2278 18.4082 23.9355 18.1299C23.6432 17.8516 23.4166 17.5315 23.2485 17.1628C23.0804 16.7801 23 16.3766 23 15.9592Z" fill="#0083F0"/>
<path d="M23 24.8707C23 24.444 23.0804 24.0458 23.2485 23.6688C23.4166 23.2777 23.6432 22.9363 23.9355 22.6518C24.2278 22.3673 24.564 22.1469 24.9514 21.9833C25.3534 21.8197 25.7773 21.7415 26.2158 21.7415C26.6543 21.7415 27.0636 21.8197 27.4509 21.9833C27.8529 22.1469 28.2037 22.3673 28.4961 22.6518C28.7884 22.9363 29.015 23.2777 29.1831 23.6688C29.3512 24.0458 29.4316 24.444 29.4316 24.8707C29.4316 25.2975 29.3512 25.71 29.1831 26.1011C29.015 26.478 28.7884 26.8052 28.4961 27.0897C28.2037 27.3741 27.8529 27.5946 27.4509 27.7582C27.0636 27.9218 26.6543 28 26.2158 28C25.7773 28 25.3534 27.9218 24.9514 27.7582C24.564 27.5946 24.2278 27.3741 23.9355 27.0897C23.6432 26.8052 23.4166 26.478 23.2485 26.1011C23.0804 25.71 23 25.2975 23 24.8707Z" fill="#0083F0"/>
</svg>
