<svg width="40" height="40" viewBox="0 0 40 40" fill="none" xmlns="http://www.w3.org/2000/svg">
<path fill-rule="evenodd" clip-rule="evenodd" d="M13.3368 11.5C13.3368 9.73189 14.0392 8.0362 15.2894 6.78595C16.5397 5.53571 18.2353 5 20.0035 5C21.7716 5 23.4673 5.53571 24.7175 6.78595C25.9677 8.0362 26.6701 9.73189 26.6701 11.5C26.6701 13.2681 25.9677 14.9638 24.7175 16.214C23.4673 17.4643 21.7716 18.1667 20.0035 18.1667C18.2353 18.1667 16.5397 17.4643 15.2894 16.214C14.0392 14.9638 13.3368 13.2681 13.3368 11.5ZM13.3368 20.4167C10.0035 20.8333 9.00704 21.7113 7.44424 23.2741C5.88143 24.8369 5.00346 26.9565 5.00346 29.1667C5.00346 30.4927 4.89911 32.3957 5.83679 33.3333C6.77447 34.271 8.67738 34.1667 10.0035 34.1667H30.0035C31.3295 34.1667 33.2324 34.271 34.1701 33.3333C35.1078 32.3957 35.0035 30.4927 35.0035 29.1667C35.0035 26.9565 34.1255 24.8369 32.5627 23.2741C30.9999 21.7113 30.0035 20.8333 26.6701 20.4167C23.3368 20 22.6272 20 20.0035 20C17.3797 20 16.6701 20 13.3368 20.4167Z" fill="#DCDDDE"/>
</svg>
