<svg width="24" height="24" viewBox="0 0 24 24" fill="none" xmlns="http://www.w3.org/2000/svg">
<path d="M20.4868 17.14L16.4218 13.444C16.2298 13.2691 15.9772 13.1758 15.7176 13.1838C15.458 13.1919 15.2117 13.3006 15.0308 13.487L12.6378 15.948C12.0618 15.838 10.9038 15.477 9.71179 14.288C8.51979 13.095 8.15879 11.934 8.05179 11.362L10.5108 8.968C10.6972 8.78712 10.8059 8.54082 10.814 8.2812C10.822 8.02159 10.7287 7.76904 10.5538 7.57699L6.85879 3.51299C6.68384 3.32035 6.44067 3.2035 6.18095 3.18725C5.92122 3.17101 5.66539 3.25665 5.46779 3.42599L3.29779 5.28699C3.1249 5.46051 3.02171 5.69145 3.00779 5.93599C2.99279 6.18599 2.70679 12.108 7.29879 16.702C11.3048 20.707 16.3228 21 17.7048 21C17.9068 21 18.0308 20.994 18.0638 20.992C18.3081 20.9776 18.5387 20.874 18.7118 20.701L20.5718 18.53C20.7418 18.333 20.8281 18.0774 20.8122 17.8177C20.7963 17.558 20.6795 17.3148 20.4868 17.14Z" fill="black"/>
</svg>
